# xmcd CD database file
#
# Track frame offsets:
#	150
#	15190
#	29017
#	40470
#	53727
#	67842
#	77910
#	90425
#	103610
#	112785
#	139255
#	152132
#	165230
#	178832
#	192990
#	204390
#	215912
#	228187
#	241877
#	256495
#	268512
#	286665
#
# Disc length: 3996 seconds
#
# Revision: 0
# Processed by: cddbd v1.4PL0 Copyright (c) Steve Scherf et al.
# Submitted via: CDex 1.50Beta5
#
DISCID=250f9a16
DTITLE=Duke Ellington - The Complete Capitol Recordings of Duke Ellington [CD2]
DYEAR=1900
DGENRE=Jazz
TTITLE0=Melancholia
TTITLE1=Prelude To A Kiss
TTITLE2=In A Sentimental Mood
TTITLE3=Things Ain't What They Used To Be
TTITLE4=All Too Soon
TTITLE5=Janet
TTITLE6=Give Me The Right
TTITLE7=Is It A Sin? (My Loving You)
TTITLE8=Don't Touch Me
TTITLE9=Basin Street Blues
TTITLE10=Big Drag
TTITLE11=Hear My Plex
TTITLE12=Don't Ever Say Goodbye
TTITLE13=What More Can I Say?
TTITLE14=Kinda Dukish
TTITLE15=Montevideo
TTITLE16=December Blue
TTITLE17=I'm Just A Lucky So And So
TTITLE18=It Shouldn't Happen To A Dream
TTITLE19=What More Can I Say?
TTITLE20=Rockin' In Rhythm
TTITLE21=Ultra Deluxe
EXTD=
EXTT0=
EXTT1=
EXTT2=
EXTT3=
EXTT4=
EXTT5=
EXTT6=
EXTT7=
EXTT8=
EXTT9=
EXTT10=
EXTT11=
EXTT12=
EXTT13=
EXTT14=
EXTT15=
EXTT16=
EXTT17=
EXTT18=
EXTT19=
EXTT20=
EXTT21=
PLAYORDER=
